/* XPM */
static char * bottom_right_active_xpm[] = {
"20 3 3 1",
" 	c None",
".	c #999999",
"+	c #000000",
"...................+",
"...................+",
"++++++++++++++++++++"};
