/* XPM */
static char * bottom_active_xpm[] = {
"8 3 3 1",
" 	c None",
".	c #666666",
"+	c #000000",
"........",
"........",
"++++++++"};
