/* XPM */
static char * menu_active_xpm[] = {
"17 7 3 1",
" 	c None",
".	c #666666",
"+	c #007777",
"....+++++++++++++",
"...+++++++++++++.",
"..+++++++++++++..",
".+++++++++++++...",
"+++++++++++++....",
"++++++++++++.....",
"................."};
